<svg width="1496" height="336" viewBox="0 0 1496 336" fill="none" xmlns="http://www.w3.org/2000/svg">
<path d="M221.457 16.0493C223.732 15.852 225.737 17.5368 225.935 19.812L249.694 293.686C249.73 293.802 249.759 293.92 249.777 294.042C249.846 294.484 249.842 294.934 249.773 295.39C249.715 296.014 249.517 296.602 249.208 297.119C245.332 305.002 223.57 314.554 195.581 322.843C164.994 331.902 137.637 331.51 134.495 326.384C134.248 326.139 134.028 325.859 133.845 325.546L133.741 325.36L6.40918 80.8501C5.35478 78.8245 6.14255 76.3268 8.16797 75.272C10.1936 74.2174 12.6911 75.0044 13.7461 77.0298L139.311 318.148C139.33 318.187 139.35 318.226 139.371 318.264L139.469 318.452C139.471 318.45 139.473 318.448 139.475 318.447C142.847 323.963 161.84 324.512 193.599 315.292C224.144 306.425 240.52 297.044 241.064 290.117C241.07 290.117 241.076 290.118 241.082 290.119L241.073 290.023C241.098 289.601 241.06 289.189 240.966 288.786L217.694 20.5269L217.682 20.314C217.603 18.1278 219.253 16.2408 221.457 16.0493Z" fill="#B0B0B0"/>
<path d="M214.7 117.362C215.774 117.345 216.311 117.337 216.737 117.533C217.113 117.706 217.428 117.987 217.643 118.34C217.886 118.741 217.939 119.275 218.045 120.344L234.325 284.471C234.421 285.434 234.469 285.916 234.335 286.328C234.287 286.476 234.221 286.616 234.143 286.748C232.192 292.88 214.956 303 193.376 309.171C172.155 315.239 153.377 316.656 148.127 312.935C147.902 312.858 147.69 312.744 147.502 312.595C147.162 312.324 146.936 311.894 146.483 311.034L48.373 124.775C47.5426 123.199 47.1271 122.41 47.21 121.762C47.2824 121.196 47.5854 120.685 48.0469 120.351C48.5756 119.967 49.4665 119.953 51.248 119.925L214.7 117.362Z" fill="#FE9332"/>
<path d="M218.191 119.42C218.072 131.012 180.052 139.878 132.072 139.386C84.0919 138.894 46.5526 131.115 46.6715 119.524C46.7903 107.932 84.5222 96.9179 132.502 97.4098C180.482 97.9018 218.309 107.829 218.191 119.42Z" fill="#FF7D0C"/>
<path d="M113.711 31.3894C144.486 23.1433 172.278 18.6791 192.646 17.8163C202.872 17.3831 210.951 17.8715 216.515 19.1085C219.304 19.7287 221.184 20.4784 222.336 21.1944C222.892 21.5405 223.195 21.827 223.346 22.0074C223.42 22.0947 223.457 22.1552 223.473 22.1858C223.488 22.2148 223.491 22.2283 223.492 22.2303C223.492 22.2324 223.495 22.2404 223.496 22.2627C223.496 22.2871 223.495 22.3441 223.477 22.4404C223.441 22.6399 223.331 23.005 223.029 23.5483C222.4 24.6781 221.154 26.1951 219.031 28.046C214.797 31.7364 207.991 35.9796 198.842 40.4982C180.626 49.4955 154.171 59.0789 123.343 67.3391C92.5437 75.5918 64.1166 80.4697 43.108 81.7357C32.5605 82.3713 24.159 82.0779 18.3484 80.9704C15.4306 80.4142 13.4609 79.7056 12.2593 79.0129C11.4862 78.5671 11.228 78.2484 11.1553 78.1339C11.1613 77.9975 11.2265 77.5925 11.6722 76.8216C12.3664 75.6209 13.7179 74.0224 15.9668 72.0818C20.4451 68.2174 27.5743 63.7626 37.0265 59.0393C55.8534 49.6314 82.9111 39.6422 113.711 31.3894Z" stroke="#B0B0B0" stroke-width="10.3387"/>
<path d="M123.216 219.513L148.054 221.27C149.229 225.23 149.777 228.112 149.697 229.914L113.559 226.382L111.459 219.31L139.339 195.027C140.371 196.431 141.484 199.144 142.679 203.167L123.216 219.513ZM185.325 210.205L205.18 195.178L179.95 192.101C178.998 188.895 178.595 186.04 178.74 183.534L214.921 188.592L217.021 195.664L188.665 218.344C187.614 216.878 186.501 214.165 185.325 210.205Z" fill="black"/>
<path d="M156.454 244.772L163.681 170.138L171.421 168.433L164.195 243.067L156.454 244.772Z" fill="black"/>
<path d="M388.4 273.2C368.233 273.2 351.275 269.075 337.525 260.825C323.775 252.392 313.417 240.75 306.45 225.9C299.483 211.05 296 193.817 296 174.2C296 154.583 299.575 137.258 306.725 122.225C313.875 107.192 324.325 95.4583 338.075 87.025C351.825 78.4083 368.6 74.1 388.4 74.1C403.067 74.1 415.992 76.575 427.175 81.525C438.358 86.475 447.433 93.5333 454.4 102.7C461.55 111.683 466.133 122.775 468.15 135.975H434.875C432.308 126.625 427.083 119.292 419.2 113.975C411.317 108.658 401.05 106 388.4 106C374.65 106 363.558 109.208 355.125 115.625C346.692 122.042 340.55 130.292 336.7 140.375C333.033 150.458 331.2 161.275 331.2 172.825C331.2 184.742 333.125 195.925 336.975 206.375C341.008 216.825 347.333 225.258 355.95 231.675C364.567 238.092 375.658 241.3 389.225 241.3C397.658 241.3 404.992 240.108 411.225 237.725C417.642 235.342 422.958 231.95 427.175 227.55C431.575 222.967 434.6 217.65 436.25 211.6H471.175C468.975 224.617 464.025 235.708 456.325 244.875C448.808 254.042 439.183 261.1 427.45 266.05C415.9 270.817 402.883 273.2 388.4 273.2ZM488.483 271V76.575H522.033V144.775C525.883 139.825 530.374 135.792 535.508 132.675C540.641 129.558 546.049 127.358 551.733 126.075C557.416 124.608 562.824 123.875 567.958 123.875C581.708 123.875 592.524 126.9 600.408 132.95C608.291 139 613.791 147.067 616.908 157.15C620.208 167.233 621.858 178.6 621.858 191.25V271H588.308V197.025C588.308 192.075 587.941 187.033 587.208 181.9C586.474 176.767 585.008 172.183 582.808 168.15C580.791 163.933 577.674 160.542 573.458 157.975C569.424 155.408 564.016 154.125 557.233 154.125C550.816 154.125 545.316 155.5 540.733 158.25C536.149 160.817 532.483 164.392 529.733 168.975C527.166 173.558 525.241 178.6 523.958 184.1C522.674 189.6 522.033 195.1 522.033 200.6V271H488.483ZM691.325 272.925C684.542 272.925 678.125 272.008 672.075 270.175C666.025 268.342 660.617 265.683 655.85 262.2C651.084 258.533 647.234 254.042 644.3 248.725C641.55 243.225 640.175 236.808 640.175 229.475C640.175 220.125 642.009 212.517 645.675 206.65C649.342 200.6 654.292 196.017 660.525 192.9C666.942 189.783 674.184 187.675 682.25 186.575C690.317 185.292 698.75 184.65 707.55 184.65H735.875C735.875 178.233 734.867 172.733 732.85 168.15C730.834 163.383 727.625 159.625 723.225 156.875C719.009 154.125 713.509 152.75 706.725 152.75C702.325 152.75 698.2 153.3 694.35 154.4C690.684 155.317 687.475 156.875 684.725 159.075C682.159 161.092 680.325 163.75 679.225 167.05H644.85C646.134 159.533 648.7 153.117 652.55 147.8C656.584 142.3 661.442 137.808 667.125 134.325C672.992 130.842 679.409 128.275 686.375 126.625C693.342 124.792 700.4 123.875 707.55 123.875C728.634 123.875 743.942 129.925 753.475 142.025C763.192 154.125 768.05 171.083 768.05 192.9V271H738.35L737.525 252.3C733.309 258.533 728.267 263.117 722.4 266.05C716.534 268.983 710.85 270.817 705.35 271.55C699.85 272.467 695.175 272.925 691.325 272.925ZM697.925 245.7C705.259 245.7 711.767 244.325 717.45 241.575C723.134 238.825 727.625 234.975 730.925 230.025C734.409 225.075 736.15 219.392 736.15 212.975V208.3H709.75C705.35 208.3 700.95 208.483 696.55 208.85C692.334 209.033 688.484 209.767 685 211.05C681.517 212.15 678.675 213.892 676.475 216.275C674.459 218.658 673.45 222.05 673.45 226.45C673.45 230.85 674.55 234.425 676.75 237.175C679.134 239.925 682.159 242.033 685.825 243.5C689.675 244.967 693.709 245.7 697.925 245.7ZM791.831 271V126.075H825.381V271H791.831ZM808.606 109.3C802.19 109.3 797.056 107.375 793.206 103.525C789.356 99.675 787.431 94.6333 787.431 88.4C787.431 82.35 789.448 77.4 793.481 73.55C797.515 69.5167 802.556 67.5 808.606 67.5C814.473 67.5 819.515 69.425 823.731 73.275C827.948 77.125 830.056 82.1667 830.056 88.4C830.056 94.6333 828.04 99.675 824.006 103.525C819.973 107.375 814.84 109.3 808.606 109.3ZM936.821 273.2C916.654 273.2 899.696 269.075 885.946 260.825C872.196 252.392 861.838 240.75 854.871 225.9C847.904 211.05 844.421 193.817 844.421 174.2C844.421 154.583 847.996 137.258 855.146 122.225C862.296 107.192 872.746 95.4583 886.496 87.025C900.246 78.4083 917.021 74.1 936.821 74.1C951.488 74.1 964.413 76.575 975.596 81.525C986.779 86.475 995.854 93.5333 1002.82 102.7C1009.97 111.683 1014.55 122.775 1016.57 135.975H983.296C980.729 126.625 975.504 119.292 967.621 113.975C959.738 108.658 949.471 106 936.821 106C923.071 106 911.979 109.208 903.546 115.625C895.113 122.042 888.971 130.292 885.121 140.375C881.454 150.458 879.621 161.275 879.621 172.825C879.621 184.742 881.546 195.925 885.396 206.375C889.429 216.825 895.754 225.258 904.371 231.675C912.988 238.092 924.079 241.3 937.646 241.3C946.079 241.3 953.413 240.108 959.646 237.725C966.063 235.342 971.379 231.95 975.596 227.55C979.996 222.967 983.021 217.65 984.671 211.6H1019.6C1017.4 224.617 1012.45 235.708 1004.75 244.875C997.229 254.042 987.604 261.1 975.871 266.05C964.321 270.817 951.304 273.2 936.821 273.2ZM1103.18 272.925C1088.33 272.925 1075.5 269.9 1064.68 263.85C1054.05 257.8 1045.8 249.183 1039.93 238C1034.25 226.817 1031.4 213.708 1031.4 198.675C1031.4 183.458 1034.34 170.35 1040.2 159.35C1046.07 148.167 1054.32 139.458 1064.95 133.225C1075.59 126.992 1088.33 123.875 1103.18 123.875C1117.85 123.875 1130.5 126.992 1141.13 133.225C1151.76 139.458 1159.92 148.258 1165.6 159.625C1171.29 170.808 1174.13 184.008 1174.13 199.225C1174.13 214.075 1171.29 227.092 1165.6 238.275C1160.1 249.275 1152.04 257.8 1141.4 263.85C1130.77 269.9 1118.03 272.925 1103.18 272.925ZM1102.9 242.4C1112.07 242.4 1119.4 240.383 1124.9 236.35C1130.59 232.317 1134.71 227 1137.28 220.4C1139.85 213.8 1141.13 206.65 1141.13 198.95C1141.13 191.25 1139.85 184.008 1137.28 177.225C1134.71 170.442 1130.59 165.033 1124.9 161C1119.4 156.783 1112.07 154.675 1102.9 154.675C1093.74 154.675 1086.31 156.783 1080.63 161C1074.95 165.033 1070.82 170.442 1068.25 177.225C1065.69 183.825 1064.4 191.067 1064.4 198.95C1064.4 206.65 1065.69 213.892 1068.25 220.675C1071 227.275 1075.13 232.592 1080.63 236.625C1086.31 240.475 1093.74 242.4 1102.9 242.4ZM1251.87 272.925C1237.2 272.925 1225.1 269.625 1215.57 263.025C1206.03 256.242 1198.88 247.258 1194.12 236.075C1189.53 224.892 1187.24 212.425 1187.24 198.675C1187.24 184.375 1189.72 171.633 1194.67 160.45C1199.62 149.083 1207.04 140.192 1216.94 133.775C1226.84 127.175 1239.22 123.875 1254.07 123.875C1259.57 123.875 1264.88 124.517 1270.02 125.8C1275.33 126.9 1280.28 128.733 1284.87 131.3C1289.63 133.683 1293.57 136.892 1296.69 140.925V76.575H1330.24V271H1297.79L1297.24 252.85C1293.76 257.433 1289.63 261.192 1284.87 264.125C1280.28 267.058 1275.15 269.258 1269.47 270.725C1263.78 272.192 1257.92 272.925 1251.87 272.925ZM1258.19 242.675C1266.99 242.675 1274.23 240.658 1279.92 236.625C1285.6 232.408 1289.82 226.908 1292.57 220.125C1295.5 213.158 1296.97 205.825 1296.97 198.125C1296.97 190.058 1295.5 182.725 1292.57 176.125C1289.82 169.525 1285.6 164.208 1279.92 160.175C1274.23 156.142 1266.99 154.125 1258.19 154.125C1248.84 154.125 1241.42 156.233 1235.92 160.45C1230.6 164.667 1226.66 170.258 1224.09 177.225C1221.71 184.008 1220.52 191.342 1220.52 199.225C1220.52 205.092 1221.16 210.683 1222.44 216C1223.91 221.133 1226.11 225.717 1229.04 229.75C1231.97 233.783 1235.82 236.992 1240.59 239.375C1245.36 241.575 1251.22 242.675 1258.19 242.675ZM1419.39 272.925C1404.35 272.925 1391.52 269.808 1380.89 263.575C1370.44 257.342 1362.46 248.725 1356.96 237.725C1351.64 226.542 1348.99 213.617 1348.99 198.95C1348.99 184.283 1351.74 171.358 1357.24 160.175C1362.92 148.808 1370.99 139.917 1381.44 133.5C1392.07 127.083 1404.81 123.875 1419.66 123.875C1430.66 123.875 1440.29 125.892 1448.54 129.925C1456.79 133.775 1463.66 139.092 1469.16 145.875C1474.84 152.658 1479.06 160.358 1481.81 168.975C1484.56 177.592 1485.84 186.667 1485.66 196.2C1485.48 198.4 1485.29 200.6 1485.11 202.8C1484.93 204.817 1484.65 207.017 1484.29 209.4H1382.54C1383.09 215.817 1384.74 221.683 1387.49 227C1390.42 232.317 1394.45 236.533 1399.59 239.65C1404.9 242.767 1411.5 244.325 1419.39 244.325C1423.97 244.325 1428.37 243.775 1432.59 242.675C1436.8 241.392 1440.47 239.558 1443.59 237.175C1446.89 234.792 1449.09 231.767 1450.19 228.1H1483.74C1481.35 238.55 1476.95 247.075 1470.54 253.675C1464.12 260.275 1456.42 265.133 1447.44 268.25C1438.64 271.367 1429.29 272.925 1419.39 272.925ZM1383.09 184.375H1452.94C1452.94 178.325 1451.56 172.825 1448.81 167.875C1446.06 162.925 1442.12 159.075 1436.99 156.325C1432.04 153.392 1425.99 151.925 1418.84 151.925C1411.14 151.925 1404.72 153.483 1399.59 156.6C1394.45 159.717 1390.51 163.75 1387.76 168.7C1385.01 173.65 1383.45 178.875 1383.09 184.375Z" fill="black"/>
<circle cx="809" cy="89" r="22" fill="#FE9332"/>
</svg>
